<svg xmlns="http://www.w3.org/2000/svg" width="104" height="104" viewBox="0 0 104 104"><defs><style>.a{fill:#255a7b;}</style></defs><g transform="translate(-408)"><path class="a" d="M96.383,21.568H76.808a1.523,1.523,0,0,0,0,3.047H96.383a4.576,4.576,0,0,1,4.57,4.57V80.909a4.576,4.576,0,0,1-4.57,4.57H7.617a4.576,4.576,0,0,1-4.57-4.57V29.185a4.576,4.576,0,0,1,4.57-4.57h25.16v1.533c0,.509.022,1.014.06,1.514H8.227a2.135,2.135,0,0,0-2.133,2.133V67.578a1.523,1.523,0,0,0,3.047,0V30.708H33.317a19.474,19.474,0,0,0,9.623,12.539V46.66a1.859,1.859,0,0,1-1.27,1.763l-14.7,4.944a11.663,11.663,0,0,0-7.959,11.064V79.386H9.141v-4.7a1.523,1.523,0,0,0-3.047,0V80.3a2.135,2.135,0,0,0,2.133,2.133H95.773A2.135,2.135,0,0,0,97.906,80.3V29.794a2.135,2.135,0,0,0-2.133-2.133h-24.6q.044-.657.046-1.322V9.208A9.218,9.218,0,0,0,62.015,0H41.985a9.218,9.218,0,0,0-9.208,9.208v12.36H7.617A7.626,7.626,0,0,0,0,29.185V80.909a7.626,7.626,0,0,0,7.617,7.617H44.539v6.333H42.615a7.016,7.016,0,0,0-7.008,7.008A2.135,2.135,0,0,0,37.74,104H66.26a2.135,2.135,0,0,0,2.133-2.133,7.016,7.016,0,0,0-7.008-7.008H59.46V88.526H96.383A7.626,7.626,0,0,0,104,80.909V29.185a7.626,7.626,0,0,0-7.617-7.617ZM81.945,79.385H22.055V64.431a8.619,8.619,0,0,1,5.883-8.176L31.38,55.1a15.765,15.765,0,0,0,.184,6.448,7.78,7.78,0,0,0-5.8,7.512v5.014a2.575,2.575,0,0,0,2.572,2.572h1.423a1.523,1.523,0,1,0,0-3.047h-.949V69.058a4.725,4.725,0,0,1,4.716-4.72h.01a4.725,4.725,0,0,1,4.714,4.719V73.6h-.949a1.523,1.523,0,0,0,0,3.047h1.424A2.575,2.575,0,0,0,41.3,74.072V69.058a7.778,7.778,0,0,0-6.633-7.683,12.787,12.787,0,0,1,.126-7.426l6.839-2.3,8.6,8.589a2.746,2.746,0,0,0,3.876,0l8.512-8.5L70.1,54.249a12.127,12.127,0,0,1,.077,8.5,6.992,6.992,0,1,0,3.13.23,15.03,15.03,0,0,0,.309-7.55l2.45.824a8.619,8.619,0,0,1,5.882,8.176ZM59.691,50.355l-7.521,7.513-7.685-7.678a4.9,4.9,0,0,0,1.5-3.531v-2.09a18.952,18.952,0,0,0,5.945.975H52a19.279,19.279,0,0,0,6.012-.953V46.66a4.9,4.9,0,0,0,1.678,3.7ZM71.237,65.718h0a3.94,3.94,0,1,1-3.947,3.94A3.947,3.947,0,0,1,71.241,65.718Zm-.512-35.009H94.859V79.385H84.992V64.431a11.663,11.663,0,0,0-7.958-11.064l-14.7-4.944a1.859,1.859,0,0,1-1.269-1.763V43.288a19.287,19.287,0,0,0,4.516-3.352,19.068,19.068,0,0,0,5.15-9.228Zm-34.9-21.5a6.168,6.168,0,0,1,6.161-6.161h20.03a6.168,6.168,0,0,1,6.161,6.161v9.131a14.539,14.539,0,0,1-5.413-1.726,14.455,14.455,0,0,1-4.432-3.8,2.456,2.456,0,0,0-3.283-.545,37.03,37.03,0,0,1-6.621,3.483,37.209,37.209,0,0,1-12.6,2.657Zm0,12.249a40.248,40.248,0,0,0,13.739-2.882,40.079,40.079,0,0,0,6.7-3.467,17.466,17.466,0,0,0,5.017,4.169A17.625,17.625,0,0,0,68.176,21.4V26.34a16.2,16.2,0,0,1-9.193,14.583,1.487,1.487,0,0,0-.194.092A16.113,16.113,0,0,1,51.943,42.5h0a16.293,16.293,0,0,1-16.119-16.35c0-.02,0-4.675,0-4.691ZM47.586,88.526h8.827v6.333H47.586Zm13.8,9.38a3.968,3.968,0,0,1,3.855,3.047H38.761a3.967,3.967,0,0,1,3.854-3.047Z" transform="translate(408)"/></g></svg>