<svg xmlns="http://www.w3.org/2000/svg" width="104" height="104" viewBox="0 0 104 104"><defs><style>.a{fill:#255a7b;}</style></defs><g transform="translate(-412 66)"><path class="a" d="M96.383,32.225h-6.9a1.523,1.523,0,1,0,0,3.047h6.9a4.575,4.575,0,0,1,4.57,4.57v61.01a.1.1,0,0,1-.1.1H83.895V94.859h7.782a3.155,3.155,0,0,0,3.148-3.134l.034-7.5a3.17,3.17,0,0,0-3.148-3.163H83.895V75.056h7.782a3.155,3.155,0,0,0,3.148-3.134l.034-7.5a3.171,3.171,0,0,0-3.148-3.163H83.895V55.164h7.782a3.155,3.155,0,0,0,3.148-3.134l.034-7.5a3.171,3.171,0,0,0-3.148-3.163H83.895V25.594a7.626,7.626,0,0,0-7.617-7.617H71.441a19.5,19.5,0,0,0-38.881,0H27.625a7.626,7.626,0,0,0-7.617,7.617v6.631H7.617A7.626,7.626,0,0,0,0,39.842v61.01A3.152,3.152,0,0,0,3.148,104h97.7A3.152,3.152,0,0,0,104,100.852V39.842A7.626,7.626,0,0,0,96.383,32.225ZM83.895,44.412h7.816a.1.1,0,0,1,.1.1l-.034,7.5a.1.1,0,0,1-.1.1H83.895Zm0,19.892h7.816a.1.1,0,0,1,.072.03.1.1,0,0,1,.03.072l-.034,7.5a.1.1,0,0,1-.1.1H83.895Zm0,19.8h7.816a.1.1,0,0,1,.072.03.1.1,0,0,1,.03.072l-.034,7.5a.1.1,0,0,1-.1.1H83.895Zm-63.887,7.7H12.324a.1.1,0,0,1-.1-.1l-.035-7.5a.1.1,0,0,1,.03-.073.1.1,0,0,1,.072-.03h7.719Zm0-19.8H12.324a.1.1,0,0,1-.1-.1l-.035-7.5a.1.1,0,0,1,.03-.073.1.1,0,0,1,.072-.03h7.719Zm0-19.892H12.324a.1.1,0,0,1-.1-.1l-.035-7.5a.1.1,0,0,1,.03-.073.1.1,0,0,1,.072-.03h7.719Zm0-10.751H12.289a3.168,3.168,0,0,0-3.148,3.164l.035,7.5a3.155,3.155,0,0,0,3.148,3.133h7.684v6.094H12.289A3.169,3.169,0,0,0,9.141,64.42l.035,7.5a3.155,3.155,0,0,0,3.148,3.133h7.684v6.006H12.289a3.167,3.167,0,0,0-3.148,3.164l.035,7.5a3.154,3.154,0,0,0,3.148,3.133h7.684v6.094H3.148a.1.1,0,0,1-.1-.1V39.842a4.575,4.575,0,0,1,4.57-4.57H20.008ZM52,3.047A16.453,16.453,0,1,1,35.547,19.5,16.472,16.472,0,0,1,52,3.047Zm13.614,97.906H53.523V74.126H65.614ZM35.339,71.079V68.032H68.661v3.047Zm45.509,29.874H68.661V74.126a2.8,2.8,0,0,0,3.047-2.742V67.727a2.745,2.745,0,0,0-2.742-2.742H35.034a2.745,2.745,0,0,0-2.742,2.742v3.656a2.782,2.782,0,0,0,3.047,2.742V84.913a1.523,1.523,0,1,0,3.047,0V74.126H50.477v26.828H38.386v-8.93a1.523,1.523,0,0,0-3.047,0v8.93H23.055V25.594a4.575,4.575,0,0,1,4.57-4.57h4.934a19.5,19.5,0,0,0,38.881,0h4.837a4.575,4.575,0,0,1,4.57,4.57ZM47.43,24.07v6.094a2.745,2.745,0,0,0,2.742,2.742h3.656a2.745,2.745,0,0,0,2.742-2.742V24.07h6.094a2.745,2.745,0,0,0,2.742-2.742V17.672a2.745,2.745,0,0,0-2.742-2.742H56.57V8.836a2.745,2.745,0,0,0-2.742-2.742H50.172A2.745,2.745,0,0,0,47.43,8.836V14.93H41.336a2.745,2.745,0,0,0-2.742,2.742v3.656a2.745,2.745,0,0,0,2.742,2.742Zm-5.789-6.094h6.7a2.135,2.135,0,0,0,2.133-2.133v-6.7h3.047v6.7a2.135,2.135,0,0,0,2.133,2.133h6.7v3.047h-6.7a2.135,2.135,0,0,0-2.133,2.133v6.7H50.477v-6.7a2.135,2.135,0,0,0-2.133-2.133h-6.7Zm4.266,72.645A1.523,1.523,0,0,0,47.43,89.1V85.98a1.523,1.523,0,0,0-3.047,0V89.1A1.523,1.523,0,0,0,45.906,90.622Zm-.1-45.528H32.338a3.155,3.155,0,0,0-3.148,3.134l-.034,7.5A3.172,3.172,0,0,0,32.3,58.892H45.8a3.152,3.152,0,0,0,3.148-3.148v-7.5A3.152,3.152,0,0,0,45.8,45.094Zm.1,10.65a.1.1,0,0,1-.1.1H32.3a.119.119,0,0,1-.1-.1l.034-7.5a.1.1,0,0,1,.1-.1H45.8a.1.1,0,0,1,.1.1ZM58.094,90.622A1.523,1.523,0,0,0,59.617,89.1V85.98a1.523,1.523,0,0,0-3.047,0V89.1A1.523,1.523,0,0,0,58.094,90.622ZM71.647,45.094H58.2a3.152,3.152,0,0,0-3.148,3.148v7.5A3.152,3.152,0,0,0,58.2,58.892H71.613a3.155,3.155,0,0,0,3.148-3.134l.034-7.5A3.17,3.17,0,0,0,71.647,45.094Zm.067,10.65a.1.1,0,0,1-.1.1H58.2a.1.1,0,0,1-.1-.1v-7.5a.1.1,0,0,1,.1-.1H71.647a.1.1,0,0,1,.1.1Z" transform="translate(412 -66)"/></g></svg>