<svg xmlns="http://www.w3.org/2000/svg" width="60.581" height="43" viewBox="0 0 60.581 43"><defs><style>.a{fill:#80e3cf;}</style></defs><path class="a" d="M45.983,484.923a2.06,2.06,0,1,0,2.06,2.06A2.062,2.062,0,0,0,45.983,484.923Zm0,3.128a1.068,1.068,0,1,1,1.068-1.068A1.069,1.069,0,0,1,45.983,488.051Z" transform="translate(-40.811 -449.154)"/><path class="a" d="M58.717,39.165a1.867,1.867,0,0,0-1.77,1.282,2.988,2.988,0,0,1,0-5.955,1.864,1.864,0,1,0,.135-1.474,4.527,4.527,0,0,0-3.7,2.15,4.406,4.406,0,0,0-.6,1.75,65.624,65.624,0,0,1-18.9-2.659,37.936,37.936,0,0,0,7.2-3.872,28.99,28.99,0,0,0,6.307-5.87,23.3,23.3,0,0,0,3.66-6.562,19.857,19.857,0,0,0,1.181-6.673c0-3.862-.775-6.788-2.3-8.7A7,7,0,0,0,44.245,0C40.207,0,36.63,2.284,33.9,6.6a25.777,25.777,0,0,0-2.183,4.367A25.777,25.777,0,0,0,29.536,6.6C26.807,2.284,23.231,0,19.193,0a7,7,0,0,0-5.681,2.582c-1.528,1.91-2.3,4.837-2.3,8.7a19.857,19.857,0,0,0,1.181,6.673,23.3,23.3,0,0,0,3.66,6.562,28.988,28.988,0,0,0,6.307,5.87,37.931,37.931,0,0,0,7.2,3.872,65.633,65.633,0,0,1-18.91,2.659,5.348,5.348,0,1,0,0,1.465,65.057,65.057,0,0,0,21.075-3.3,65.1,65.1,0,0,0,21.126,3.3A4.41,4.41,0,0,0,53.6,40.1a4.462,4.462,0,0,0,3.476,1.819,1.864,1.864,0,1,0,1.637-2.756Zm0-6.094a.839.839,0,1,1-.839.839A.84.84,0,0,1,58.717,33.071ZM12.673,11.281c0-3.521.667-6.139,1.982-7.783a5.507,5.507,0,0,1,4.537-2.033c3.55,0,6.607,1.982,9.086,5.892a24.649,24.649,0,0,1,2.732,6.089c0,.007,0,.014.007.021s.008.028.013.042.009.023.014.034l.013.03c.006.013.013.026.02.038l.013.023.025.038.015.021.027.034.018.021.028.029.024.023.027.023.029.023.027.019.032.021.029.016.032.017.037.016.028.011.049.016.015,0h0l.057.012.015,0,.053.006.02,0h.073l.034,0,.039,0,.03-.006.041-.009h.007l.027-.009.034-.011.04-.016.025-.011.043-.022.019-.01.042-.027.017-.012.037-.03.019-.016.031-.03.021-.021.025-.029.021-.027.02-.028.02-.031.017-.031.016-.032c.006-.012.011-.024.016-.037l.011-.028c.006-.015.01-.031.015-.046s0-.012.006-.018a24.644,24.644,0,0,1,2.732-6.089c2.479-3.91,5.536-5.892,9.086-5.892A5.507,5.507,0,0,1,48.783,3.5c1.315,1.644,1.982,4.263,1.982,7.783,0,7.407-5.011,17.116-19.046,22.245C17.684,28.4,12.673,18.688,12.673,11.281ZM5.348,41.535A3.882,3.882,0,1,1,9.23,37.652,3.887,3.887,0,0,1,5.348,41.535Zm53.369.333a.839.839,0,1,1,.839-.839A.84.84,0,0,1,58.717,41.868Z" transform="translate(0 0)"/></svg>