<svg xmlns="http://www.w3.org/2000/svg" width="60.64" height="43.01" viewBox="0 0 60.64 43.01"><circle cx="5.35" cy="37.55" r="1.61" fill="none" stroke="#80e3cf" stroke-miterlimit="10" stroke-width="1.5"/><circle cx="5.35" cy="37.55" r="4.6" fill="none" stroke="#80e3cf" stroke-miterlimit="10" stroke-width="1.5"/><circle cx="58.54" cy="33.82" r="1.35" fill="none" stroke="#80e3cf" stroke-miterlimit="10" stroke-width="1.5"/><path d="M57.2,41.07a3.71,3.71,0,1,1,.34-7.38" fill="none" stroke="#80e3cf" stroke-miterlimit="10" stroke-width="1.5"/><circle cx="58.54" cy="40.91" r="1.35" fill="none" stroke="#80e3cf" stroke-miterlimit="10" stroke-width="1.5"/><path d="M31.63,34.21c13.84-5,19.72-14.61,19.72-23C51.35,3.38,48.06.75,44.12.75c-9.2,0-12.49,12.49-12.49,12.49" fill="none" stroke="#80e3cf" stroke-miterlimit="10" stroke-width="1.5"/><path d="M31.63,34.21A64,64,0,0,1,10,37.55" fill="none" stroke="#80e3cf" stroke-miterlimit="10" stroke-width="1.5"/><path d="M53.32,37.55a64.15,64.15,0,0,1-21.69-3.34" fill="none" stroke="#80e3cf" stroke-miterlimit="10" stroke-width="1.5"/><path d="M31.63,13.24S28.35.75,19.15.75c-3.94,0-7.23,2.63-7.23,10.51,0,8.34,5.88,18,19.71,23" fill="none" stroke="#80e3cf" stroke-miterlimit="10" stroke-width="1.5"/></svg>