<svg xmlns="http://www.w3.org/2000/svg" width="56.696" height="39.697" viewBox="0 0 56.696 39.697"><defs><style>.a{fill:#255a7b;}</style></defs><g transform="translate(0 -76.757)"><g transform="translate(0 76.757)"><path class="a" d="M45.58,85.492H40.167c-.08-.072-.16-.144-.242-.214-.26-.246-4.015-3.807-5.476-5.445a12.542,12.542,0,0,0-1.536-1.463l-.059-.047a7.264,7.264,0,0,0-9-.006l-.052.041a12.531,12.531,0,0,0-1.55,1.474c-1.461,1.638-5.216,5.2-5.476,5.446-.082.07-.161.143-.241.215H11.116a11.116,11.116,0,0,0,0,22.233h1.958a17.727,17.727,0,0,0,30.547,0H45.58a11.007,11.007,0,0,0,6.739-2.281.83.83,0,0,0-1.008-1.319,9.359,9.359,0,0,1-5.731,1.939H44.49a17.623,17.623,0,0,0,.748-1.926h.343a7.53,7.53,0,0,0,0-15.059H43.238A17.74,17.74,0,0,0,41.8,87.152H45.58a9.453,9.453,0,0,1,8.11,14.314.83.83,0,1,0,1.423.856A11.113,11.113,0,0,0,45.58,85.492ZM11.116,106.065a9.456,9.456,0,0,1,0-18.912H14.9a17.81,17.81,0,0,0-1.444,1.926H11.116a7.53,7.53,0,0,0,0,15.059h.343a17.639,17.639,0,0,0,.747,1.926H11.116ZM45.58,90.739a5.869,5.869,0,0,1,.1,11.736A17.742,17.742,0,0,0,44.19,90.739Zm-1.155,7.977a16.077,16.077,0,1,1-32.155,0,16.36,16.36,0,0,1,.083-1.643.83.83,0,0,0-1.652-.168,18.022,18.022,0,0,0-.091,1.811,17.74,17.74,0,0,0,.4,3.759,5.869,5.869,0,0,1,.1-11.736H12.5a17.6,17.6,0,0,0-.922,2.177.83.83,0,1,0,1.569.543,16.113,16.113,0,0,1,4.719-6.936L17.9,86.5c.164-.155,4.035-3.819,5.588-5.56a10.87,10.87,0,0,1,1.343-1.279l.047-.037a5.607,5.607,0,0,1,6.95.006l.052.041a10.863,10.863,0,0,1,1.331,1.269c1.553,1.741,5.424,5.4,5.588,5.559l.029.026A16.07,16.07,0,0,1,44.426,98.716Z" transform="translate(0 -76.757)"/><path class="a" d="M180.984,265.812a29.684,29.684,0,0,1-11.67,3.131h-2.428a29.685,29.685,0,0,1-11.67-3.131,1.058,1.058,0,1,0-1.01,1.86,31.314,31.314,0,0,0,12.635,3.387h2.517a31.314,31.314,0,0,0,12.635-3.387,1.058,1.058,0,0,0-1.009-1.86Z" transform="translate(-139.751 -245.446)"/><path class="a" d="M187.273,213.835a20.808,20.808,0,0,0,8.4,2.25h1.66a20.809,20.809,0,0,0,8.4-2.25,1.058,1.058,0,0,0-1.009-1.861,18.963,18.963,0,0,1-7.432,2h-1.571a18.965,18.965,0,0,1-7.431-1.995,1.058,1.058,0,0,0-1.01,1.86Z" transform="translate(-168.15 -197.263)"/><path class="a" d="M204.714,327.7a18.838,18.838,0,0,1-7.431,1.995h-1.571a18.958,18.958,0,0,1-7.431-1.995,1.058,1.058,0,1,0-1.01,1.86,20.809,20.809,0,0,0,8.4,2.251h1.66a20.81,20.81,0,0,0,8.4-2.251,1.058,1.058,0,1,0-1.01-1.86Z" transform="translate(-168.15 -300.494)"/></g></g></svg>