<svg xmlns="http://www.w3.org/2000/svg" width="921.32" height="653.948" viewBox="0 0 921.32 653.948"><defs><style>.a{opacity:0.14;}.b{fill:#80e3cf;}</style></defs><g class="a" transform="translate(0 18)"><path class="b" d="M76.316,484.923a32.393,32.393,0,1,1-32.393,32.393A32.43,32.43,0,0,1,76.316,484.923Zm0,49.19a16.8,16.8,0,1,0-16.8-16.8A16.816,16.816,0,0,0,76.316,534.113Z" transform="translate(763.678 55.306)"/><path class="b" d="M28.35,595.624a28.4,28.4,0,0,1,26.924,19.489,45.442,45.442,0,0,0,.006-90.567,28.352,28.352,0,1,1-2.048-22.422,68.854,68.854,0,0,1,56.232,32.7,67.013,67.013,0,0,1,9.1,26.609C225.79,560.606,322.266,547.021,406,521c-40.169-16.535-76.886-36.275-109.459-58.882-37.65-26.131-69.921-56.167-95.914-89.272-24.43-31.113-43.157-64.69-55.661-99.8A301.993,301.993,0,0,1,127,171.564c0-58.728,11.784-103.237,35.027-132.29C182.584,13.58,212.462,0,248.433,0c61.411,0,115.808,34.733,157.31,100.443a392.02,392.02,0,0,1,33.193,66.41,392.02,392.02,0,0,1,33.193-66.41C513.631,34.733,568.027,0,629.439,0c35.971,0,65.849,13.58,86.4,39.274,23.241,29.053,35.027,73.562,35.027,132.29a301.992,301.992,0,0,1-17.964,101.484c-12.5,35.107-31.231,68.683-55.661,99.8-25.993,33.105-58.263,63.141-95.914,89.272C548.758,484.725,512.041,504.466,471.872,521c83.772,26.033,180.3,39.619,287.584,40.438a81.33,81.33,0,1,1-.011,22.281c-120.9-.909-228.648-17.778-320.509-50.167-92.058,32.459-200.08,49.328-321.292,50.17a67.066,67.066,0,0,1-11.535,26.154A67.857,67.857,0,0,1,53.24,637.536a28.348,28.348,0,1,1-24.89-41.912Zm0-92.678A12.754,12.754,0,1,0,41.1,515.7,12.768,12.768,0,0,0,28.35,502.946ZM728.589,171.564c0-53.542-10.142-93.369-30.145-118.371-16.409-20.512-39.626-30.912-69.005-30.912-54,0-100.487,30.148-138.186,89.608-28.936,45.643-41.423,92.132-41.545,92.6-.028.109-.069.212-.1.319-.064.215-.126.428-.2.637-.064.177-.138.346-.209.519-.066.154-.128.31-.2.461-.095.2-.2.391-.3.583-.065.118-.128.237-.2.354-.119.2-.246.39-.377.58-.072.106-.144.212-.221.315-.133.18-.273.353-.416.524-.09.109-.182.218-.276.324-.136.149-.277.293-.42.436-.118.117-.236.233-.359.345s-.27.234-.407.348-.29.236-.44.349c-.133.1-.269.189-.406.282-.162.11-.324.218-.493.32-.146.088-.3.168-.447.25s-.324.177-.492.257c-.185.088-.373.166-.563.244-.139.057-.277.117-.42.169-.245.09-.5.166-.749.238-.078.022-.153.053-.232.075-.02,0-.039.007-.059.012-.283.072-.57.13-.86.18-.078.014-.157.033-.235.046-.268.041-.54.066-.813.087-.1.009-.2.023-.3.029-.222.011-.445.006-.667,0-.15,0-.3,0-.449,0-.171-.008-.342-.031-.512-.048-.2-.019-.4-.032-.595-.062-.15-.022-.3-.058-.453-.088-.211-.04-.422-.079-.629-.131-.035-.009-.068-.012-.1-.021-.141-.038-.275-.089-.414-.131-.174-.053-.349-.1-.52-.166-.207-.074-.405-.159-.6-.245-.127-.053-.254-.1-.378-.163-.223-.106-.438-.221-.652-.34-.1-.052-.193-.1-.286-.159-.218-.13-.429-.27-.636-.412-.088-.061-.177-.12-.264-.184-.195-.144-.383-.3-.567-.451-.1-.079-.191-.158-.283-.241-.164-.147-.319-.3-.472-.456-.106-.106-.212-.213-.313-.323-.13-.144-.253-.291-.375-.44s-.221-.27-.325-.409-.2-.287-.3-.433-.207-.309-.3-.469-.176-.309-.26-.465-.173-.316-.251-.48c-.088-.184-.165-.371-.243-.559-.059-.143-.12-.284-.174-.43-.085-.232-.156-.468-.225-.705-.027-.092-.062-.178-.087-.272-.123-.463-12.608-46.953-41.546-92.6-37.7-59.459-84.189-89.608-138.185-89.608-29.38,0-52.6,10.4-69.005,30.912-20,25-30.145,64.829-30.145,118.371,0,112.647,76.2,260.3,289.653,338.31C652.385,431.863,728.589,284.211,728.589,171.564Zm111.405,460.1a59.045,59.045,0,1,0-59.045-59.045A59.111,59.111,0,0,0,839.994,631.667ZM28.35,636.728A12.754,12.754,0,1,0,15.6,623.975,12.767,12.767,0,0,0,28.35,636.728Z" transform="translate(0 -18)"/></g></svg>