<svg xmlns="http://www.w3.org/2000/svg" width="19.777" height="19.777" viewBox="0 0 19.777 19.777"><defs><style>.a{fill:#f492a5;}</style></defs><path class="a" d="M17.658,2.25H2.119A2.119,2.119,0,0,0,0,4.369V19.908a2.119,2.119,0,0,0,2.119,2.119H8.178V15.3H5.4V12.138H8.178V9.726c0-2.744,1.633-4.259,4.135-4.259a16.849,16.849,0,0,1,2.451.214V8.374h-1.38a1.582,1.582,0,0,0-1.784,1.71v2.055h3.036L14.15,15.3H11.6v6.724h6.059a2.119,2.119,0,0,0,2.119-2.119V4.369A2.119,2.119,0,0,0,17.658,2.25Z" transform="translate(0 -2.25)"/></svg>