<svg xmlns="http://www.w3.org/2000/svg" width="827" height="587" viewBox="0 0 827 587"><circle cx="73" cy="514" r="63" fill="none" stroke="#80e3cf" stroke-width="20"/><circle cx="73" cy="514" r="22.08" fill="none" stroke="#80e3cf" stroke-width="14"/><circle cx="801.55" cy="462.9" r="18.45" fill="none" stroke="#80e3cf" stroke-width="14"/><path d="M783.1,562.28a50.84,50.84,0,1,1,4.72-101.15" fill="none" stroke="#80e3cf" stroke-width="20"/><circle cx="801.55" cy="560.1" r="18.45" fill="none" stroke="#80e3cf" stroke-width="14"/><path d="M433,468.33c189.46-68,270-200.11,270-314.33,0-108-45-144-99-144C478,10,433,181,433,181" fill="none" stroke="#80e3cf" stroke-linecap="round" stroke-linejoin="round" stroke-width="20"/><path d="M433,468.33C353.75,496.77,255.45,514,136,514" fill="none" stroke="#80e3cf" stroke-linecap="round" stroke-linejoin="round" stroke-width="20"/><path d="M730,514c-119.45,0-217.75-17.23-297-45.67" fill="none" stroke="#80e3cf" stroke-linecap="round" stroke-linejoin="round" stroke-width="20"/><path d="M433,181S388,10,262,10c-54,0-99,36-99,144,0,114.22,80.54,246.33,270,314.33" fill="none" stroke="#80e3cf" stroke-linecap="round" stroke-linejoin="round" stroke-width="20"/></svg>