<svg xmlns="http://www.w3.org/2000/svg" width="19.777" height="19.772" viewBox="0 0 19.777 19.772"><defs><style>.a{fill:#f492a5;}</style></defs><path class="a" d="M9.885,7.055a5.069,5.069,0,1,0,5.069,5.069A5.061,5.061,0,0,0,9.885,7.055Zm0,8.365a3.3,3.3,0,1,1,3.3-3.3A3.3,3.3,0,0,1,9.885,15.42Zm6.459-8.573a1.182,1.182,0,1,1-1.182-1.182A1.18,1.18,0,0,1,16.345,6.847Zm3.358,1.2A5.851,5.851,0,0,0,18.1,3.9a5.89,5.89,0,0,0-4.143-1.6c-1.632-.093-6.525-.093-8.158,0A5.882,5.882,0,0,0,1.661,3.9a5.871,5.871,0,0,0-1.6,4.143c-.093,1.632-.093,6.525,0,8.158a5.851,5.851,0,0,0,1.6,4.143,5.9,5.9,0,0,0,4.143,1.6c1.632.093,6.525.093,8.158,0a5.851,5.851,0,0,0,4.143-1.6A5.89,5.89,0,0,0,19.7,16.2c.093-1.632.093-6.521,0-8.153Zm-2.109,9.9a3.337,3.337,0,0,1-1.88,1.88c-1.3.516-4.39.4-5.828.4s-4.531.115-5.828-.4a3.337,3.337,0,0,1-1.88-1.88c-.516-1.3-.4-4.39-.4-5.828s-.115-4.531.4-5.828a3.337,3.337,0,0,1,1.88-1.88c1.3-.516,4.39-.4,5.828-.4s4.531-.115,5.828.4a3.337,3.337,0,0,1,1.88,1.88c.516,1.3.4,4.39.4,5.828S18.109,16.655,17.593,17.952Z" transform="translate(0.005 -2.238)"/></svg>