<svg xmlns="http://www.w3.org/2000/svg" width="166.213" height="62.134" viewBox="0 0 166.213 62.134"><defs><style>.a{fill:#acdac7;}.b{fill:#f492a5;}.c{fill:#fff;}.d{fill:#1c5774;}</style></defs><g transform="translate(-1.689 110.188)"><g transform="translate(17.099 -110.188)"><path class="a" d="M55.472-56.67a15.4,15.4,0,0,1-3.9,6.615L35.925-34.406a15.364,15.364,0,0,1-10.9,4.513v.022H41.521c18.221,0,29.85-10.635,31.579-26.8Z" transform="translate(-25.029 92.005)"/><path class="a" d="M51.62-90.031a15.405,15.405,0,0,1,3.9,6.616H73.143C71.4-99.563,59.778-110.188,41.567-110.188h-16.4a15.355,15.355,0,0,1,10.807,4.509Z" transform="translate(-25.075 110.188)"/></g><path class="b" d="M17.1-57.688l-1.952,1.952a4.266,4.266,0,0,1-3.027,1.254,4.266,4.266,0,0,1-3.027-1.254,4.28,4.28,0,0,1,0-6.053l8.006-8,9.34-9.34-9.34-9.34L9.094-96.479a4.28,4.28,0,0,1,0-6.053,4.28,4.28,0,0,1,6.053,0L17.1-100.58,34.265-83.415H47.543a15.405,15.405,0,0,0-3.9-6.616L28-105.679a15.355,15.355,0,0,0-10.807-4.509H17.1v0a15.355,15.355,0,0,0-10.9,4.506,15.409,15.409,0,0,0,0,21.793l4.751,4.752L6.2-74.383a15.41,15.41,0,0,0,0,21.794,15.365,15.365,0,0,0,10.9,4.513h0A15.364,15.364,0,0,0,28-52.589L43.644-68.238a15.4,15.4,0,0,0,3.9-6.615H34.265Z" transform="translate(0 0)"/><path class="c" d="M68.332-80.121H37.43L20.264-97.286l-1.952-1.952a4.28,4.28,0,0,0-6.053,0,4.28,4.28,0,0,0,0,6.053l8.006,8.006,9.34,9.34-9.34,9.34-8.006,8a4.28,4.28,0,0,0,0,6.053,4.266,4.266,0,0,0,3.027,1.254,4.266,4.266,0,0,0,3.027-1.254l1.952-1.952L37.43-71.558H68.335a39.88,39.88,0,0,0,.251-4.269A39.821,39.821,0,0,0,68.332-80.121Z" transform="translate(-3.165 -3.294)"/><path class="d" d="M123.6-76.978h-5.078v14.6H123.6c4.651,0,7.482-2.943,7.482-7.3S128.25-76.978,123.6-76.978Zm0,13.8h-4.2V-76.169h4.2c4.089,0,6.562,2.583,6.562,6.492S127.688-63.181,123.6-63.181Z" transform="translate(-39.693 -11.283)"/><path class="d" d="M145.8-72.283a3.657,3.657,0,0,0-3.326,2.2v-.629c0-1.012-.516-1.573-1.37-1.573a1.4,1.4,0,0,0-.944.314l-.022.069.2.562.089.022a.9.9,0,0,1,.562-.2c.427,0,.674.314.674,1.012v9.728h.854V-67.5c0-2.516,1.5-4,3.19-4a2.366,2.366,0,0,1,1.124.246l.089-.022.293-.629-.022-.09A3.231,3.231,0,0,0,145.8-72.283Z" transform="translate(-47.036 -12.878)"/><path class="d" d="M162.594-61.475a.9.9,0,0,1-.562.2c-.427,0-.675-.314-.675-1.012v-5.887c0-2.943-2.381-4.112-4.628-4.112a5.779,5.779,0,0,0-4.4,1.978v.067l.539.472h.067a4.991,4.991,0,0,1,3.73-1.729c1.909,0,3.842,1.055,3.842,3.235v1.369a9.182,9.182,0,0,0-3.8-.831c-2.494,0-4.763,1.1-4.763,3.6,0,2.269,1.91,3.618,4.314,3.618a4.96,4.96,0,0,0,4.269-2.09v.472c0,.988.516,1.618,1.392,1.618a1.4,1.4,0,0,0,.922-.316l.045-.067-.225-.562ZM160.5-64.8c0,2.248-2.09,3.5-4.179,3.5-1.933,0-3.5-1.055-3.5-2.831,0-1.909,1.8-2.831,3.909-2.831a9.574,9.574,0,0,1,3.775.831Z" transform="translate(-51.048 -12.878)"/><path class="d" d="M172.093-57.207a.907.907,0,0,0-.922.9.912.912,0,0,0,.922.921.907.907,0,0,0,.9-.921A.9.9,0,0,0,172.093-57.207Z" transform="translate(-57.581 -18)"/><path class="d" d="M194.532-77.117l-5.145,7.685-4.314-6.428c-.7-1.01-1.213-1.526-2.067-1.526a1.47,1.47,0,0,0-.967.314l-.045.09.248.605.089.023a.937.937,0,0,1,.607-.2c.449,0,.786.224,1.3.988l4.673,6.942v6.112h.9v-6.133l5.639-8.4-.045-.067Z" transform="translate(-61.258 -11.144)"/><path class="d" d="M208.146-72.283a5.56,5.56,0,0,0-5.663,5.887,5.67,5.67,0,0,0,5.865,5.887,6.254,6.254,0,0,0,4.988-2.337v-.09l-.562-.448h-.067a5.468,5.468,0,0,1-4.381,2.088,4.817,4.817,0,0,1-4.966-4.807H213.6a1.955,1.955,0,0,0,.022-.383C213.627-69.721,211.561-72.283,208.146-72.283Zm-4.787,5.438a4.654,4.654,0,0,1,4.809-4.65c2.74,0,4.426,1.909,4.583,4.65Z" transform="translate(-68.219 -12.878)"/><path class="d" d="M233.758-61.335a.847.847,0,0,1-.561.2c-.427,0-.652-.314-.652-1.012v-9.728h-.854v6.807a3.838,3.838,0,0,1-3.887,3.909,3.45,3.45,0,0,1-3.708-3.685v-7.032h-.854V-64.8a4.159,4.159,0,0,0,4.449,4.428,4.547,4.547,0,0,0,4.022-2.271v.673c0,1.012.494,1.6,1.393,1.6a1.367,1.367,0,0,0,.921-.316l.045-.067-.224-.562Z" transform="translate(-75.273 -13.017)"/><path class="d" d="M245.251-67.272c-1.236-.516-2.2-1.033-2.2-2.2s1.033-2.022,2.516-2.022a3.4,3.4,0,0,1,2.831,1.46h.068l.561-.4v-.09a4.2,4.2,0,0,0-3.482-1.752c-1.933,0-3.371,1.169-3.371,2.854,0,1.641,1.326,2.291,2.652,2.853,1.843.787,3.729,1.326,3.729,3.033,0,1.349-1.212,2.247-2.988,2.247a3.752,3.752,0,0,1-3.348-1.774h-.09l-.538.427v.067a4.611,4.611,0,0,0,4.043,2.069c2.157,0,3.776-1.169,3.776-3.056C249.408-65.834,247.094-66.508,245.251-67.272Z" transform="translate(-81.506 -12.878)"/></g></svg>