<svg xmlns="http://www.w3.org/2000/svg" width="478.692" height="59.815" viewBox="0 0 478.692 59.815"><g transform="translate(-2.224 -1)"><path d="M282.192,1c.973.73.646,1.667.336,2.536a33.066,33.066,0,0,1-4.784,8.409,42.583,42.583,0,0,1-12.6,11.585,2.536,2.536,0,0,0-.988.874,56.691,56.691,0,0,0-4.386,8.511,9.4,9.4,0,0,0-.528,2.235c-.129,1.224.606,1.9,1.831,1.81a6.354,6.354,0,0,0,2.866-.905,16.61,16.61,0,0,0,5.886-5.473,11,11,0,0,1,4.93-4.535c.967-.425,2.152-.874,2.869.192.671,1-.172,1.922-.826,2.679a6.462,6.462,0,0,1-4.5,2.13,1.668,1.668,0,0,0-1.7,1.529,12.841,12.841,0,0,0-.273,1.547c-.172,2.388.625,3.188,2.987,2.713a10.407,10.407,0,0,0,6.259-4.084c1.051-1.377,1.864-2.935,2.806-4.4a7.828,7.828,0,0,1,1.037-1.335c.417-.413,1.069-.688,1.522-.3.387.329-.157.795-.362,1.151-.966,1.685-1.966,3.349-2.952,5.022a6.652,6.652,0,0,0-.842,2c-.082.391-.259.826.15,1.12a1.14,1.14,0,0,0,1.159-.033,5.79,5.79,0,0,0,3.092-2.594c1.079-2.037,2.2-4.051,3.323-6.066a11.543,11.543,0,0,1,.92-1.426c.254-.331.526-.877,1.045-.586a1.127,1.127,0,0,1,.451,1.292,5.084,5.084,0,0,1-.715,1.391c-2.295,3.427-5,6.571-7.061,10.16-.2.35-.43.686-.622,1.041s-.059.544.329.556c.4.013.809.011,1.214.011q56.455,0,112.91.005,20.093,0,40.186.014a3.8,3.8,0,0,0,1.572-.245c-1.281-.85-2.536-1.745-3.855-2.532-.634-.379-1.1.289-1.633.534-.344.159-.782.657-1.052.24-.3-.471.337-.632.656-.786a65.681,65.681,0,0,0,8.062-4.879l.217.293q-1.371.973-2.744,1.945c-.331.233-.664.464-1.006.679-.624.394-.8.754-.04,1.225,1.687,1.041,3.356,2.111,5.02,3.19a3.211,3.211,0,0,0,1.877.334l33.023,0c.445,0,.89.006,1.335.025a.683.683,0,0,1,.618.322,1.756,1.756,0,0,1-1.4,2.4c-2.833.018-5.666.008-8.5.009-1.093,0-2.188.051-3.277-.011a9.182,9.182,0,0,0-6.1,1.572c-3.264,2.233-7,1.818-10.647.8a18.473,18.473,0,0,1-3.956-1.526,7.652,7.652,0,0,0-3.842-.854q-42.007.03-84.015.027c-1.47,0-2.911-.481-4.326-.4-2.777.151-5.559.042-8.323.035-2.523-.006-5.07.377-7.593-.059a12.323,12.323,0,0,0-3.495.244,37.282,37.282,0,0,1-4.115.164q-23.675.008-47.349-.025a3.035,3.035,0,0,0-2.954,1.546A59.205,59.205,0,0,1,269.792,56.1a16.585,16.585,0,0,1-8.779,4.613,6.751,6.751,0,0,1-3.467-.288,3.117,3.117,0,0,1-1.78-4.507c.065.023.181.036.188.071.628,3.141,3.134,3.813,6.386,3.347,2.876-.412,5.16-2.071,7.263-3.935,3.884-3.443,6.8-7.678,9.592-12.006.382-.591.332-.884-.436-.864-.4.01-.809,0-1.214,0q-92.938,0-185.877-.04c-2.822,0-5.645.072-8.465.019-23.587-.444-47.177-.1-70.765-.215a4.433,4.433,0,0,1-1.086-.066c-.5-.13-.952-.364-.592-1.023.058-.106.215-.24.189-.3-1.079-2.293.984-1.316,1.56-1.316q66.289-.047,132.578.014,25.86.012,51.72.024c.959,0,1.864.176,1.639-1.38-.1-.708.6-1.38,1.029-2.015,3.678-5.435,7.843-10.5,11.912-15.636,1.808-2.283,3.7-4.5,5.515-6.778.9-1.132,2.185-1.163,3.566-1.574-1.387,2.491-1.237,5.053-1.533,7.507-.552,4.576-.729,9.186-.972,13.788a4.267,4.267,0,0,0-.013.485c.021.352-.084.807.343.947.386.127.519-.306.715-.54,3.268-3.911,6.5-7.856,9.808-11.731,2.39-2.8,4.791-5.59,7.354-8.238,1.371-1.416,3.287-1.481,4.933-2.251-3.01,2.3-2.736,5.888-3.558,8.969a62.4,62.4,0,0,0-2.12,12.9c-.12,2.361.188,2.57,2.58,2.235.151-.021.3-.033.47-.051.024.467-.316.457-.557.529-1.317.392-2.623.84-3.962,1.138-1.355.3-2.04-.319-1.875-1.7a84.006,84.006,0,0,1,1.831-9.024c.79-3.385,1.634-6.757,2.448-10.137.1-.421.159-.853.241-1.3-.693-.105-.93.407-1.249.716a145.886,145.886,0,0,0-13.422,15.487,52.557,52.557,0,0,0-3.661,5.131c-.6,1-1.924.836-2.855,1.364-.319.181-.309-.541-.281-.861.155-1.812.371-3.618.518-5.43.317-3.907.608-7.817.9-11.726.1-1.29.182-2.58.24-3.872.015-.335.208-.836-.223-.969-.375-.117-.6.342-.83.608-2.293,2.672-4.466,5.441-6.572,8.262A119.622,119.622,0,0,0,200.76,36.8c-1.554,2.735-1.5,2.8,1.569,2.828,25.737.241,51.474.058,77.211.162,1.445.006,2.375-.351,2.955-1.685a24.668,24.668,0,0,1,1.273-2.264c-.5-.143-.716.229-1.008.373a5.78,5.78,0,0,1-2.141.795c-1.73.121-2.192-.342-2.106-2.311-.918.6-1.741,1.2-2.622,1.7a10.1,10.1,0,0,1-5.146,1.6c-2.064-.024-2.793-.746-2.715-2.789.018-.471.087-.941.154-1.641-1.048.8-1.923,1.482-2.823,2.136a11.235,11.235,0,0,1-5.33,2.173c-2.137.256-3.2-1.114-3.048-3.226.118-1.674,1.1-2.745,1.827-4,4.36-7.476,8.613-15.019,13.432-22.217A21.1,21.1,0,0,1,281.464,1ZM265.317,22.6c.226,0,.315.027.37,0,.316-.179.63-.363.935-.56A36.073,36.073,0,0,0,274.447,15a25.7,25.7,0,0,0,5.5-9.472c.253-.874.849-2.113-.173-2.64-.96-.5-1.589.669-2.174,1.361-4.381,5.181-7.7,11.078-11.328,16.771C265.962,21.518,265.665,22.026,265.317,22.6ZM460.9,42.569c-3.929,0-7.544,0-11.159,0-.2,0-.421.068-.446.314s.206.338.38.415c2.229.992,4.49,1.908,7,1.529A6.839,6.839,0,0,0,460.9,42.569ZM276.029,27.2c-.017-.807-.521-1.113-1.33-.692a7.593,7.593,0,0,0-2.912,3.447c-.232.422.053.545.444.6A3.875,3.875,0,0,0,276.029,27.2Z" transform="translate(-6.367)"/><path d="M1848.5,1c.943.738.648,1.672.333,2.545a33.734,33.734,0,0,1-4.932,8.6,42.415,42.415,0,0,1-12.448,11.388,2.727,2.727,0,0,0-1.054.976,68.435,68.435,0,0,0-4.113,7.836,10.2,10.2,0,0,0-.733,2.683,1.552,1.552,0,0,0,1.947,1.9c3.214-.458,5.5-2.454,7.462-4.814A23.306,23.306,0,0,1,1840,27.26a9.147,9.147,0,0,1,2.49-1.238c1.213-.342,2.547-.333,3.461-1.446a.9.9,0,0,1,1.011-.236c.431.246.011.557-.089.819-.155.4.031.5.376.539.307.035.668-.009.846.623-1.882-.848-2.269.613-2.87,1.721a45.46,45.46,0,0,0-3.316,6.875c-.321.939-.889,2.06,0,2.83.938.811,1.987.021,2.932-.389a14.418,14.418,0,0,0,1.261-.709c-.775,1.473-4.093,2.654-5.418,2.027-1.106-.524-1.116-1.514-.941-2.5a19.125,19.125,0,0,1,.642-2.149c-.61-.021-.824.421-1.1.7a12.959,12.959,0,0,1-3.587,2.854c-.7.327-1.472.71-2.164.134s-.414-1.4-.215-2.148c.081-.306.162-.612.245-.926-.509-.218-.693.2-.947.4a12.7,12.7,0,0,1-6.206,2.837c-2.255.27-3.59-1.2-3-3.386a17.308,17.308,0,0,1,1.292-3.049c-.421-.22-.736.024-1.049.1a3.645,3.645,0,0,1-3.529-.759c-.888-.847-1.116-.481-1.533.378a15.565,15.565,0,0,1-4.483,5.648,4.64,4.64,0,0,1-3.219,1.2,1.6,1.6,0,0,1-1.668-1.7c-.056-3.263,4.13-9.641,8.514-10.216a16.532,16.532,0,0,0-5.44,6.96,6.332,6.332,0,0,0-.682,2.925c.036,1.084.5,1.386,1.487.9a4.875,4.875,0,0,0,1.167-.849,19.427,19.427,0,0,0,3.77-5.317,7.665,7.665,0,0,0,.485-4.152,2.268,2.268,0,0,1,1.665-2.576c.705-.164.984-.091.719.744a7.744,7.744,0,0,0-.264,4.531,2.057,2.057,0,0,0,1.878,1.778c1.213.085,2.325-.025,3.049-1.244,3.676-6.189,7.393-12.354,11.065-18.545A23.723,23.723,0,0,1,1847.774,1Zm-16.891,21.612a2.136,2.136,0,0,0,1.316-.58,37.757,37.757,0,0,0,10.242-10.214,20.68,20.68,0,0,0,3.092-6.282c.238-.883.847-2.118-.167-2.642-.941-.486-1.591.667-2.18,1.358-3.869,4.546-6.869,9.688-10.043,14.71C1833.125,20.142,1832.4,21.335,1831.611,22.612Zm3.838,13.2c-.073.865.18,1.136.823.77a10.289,10.289,0,0,0,1.309-.871,22.56,22.56,0,0,0,5.688-7.168c.4-.739,1.51-1.8.946-2.22-.708-.53-1.849.318-2.7.86-.068.043-.131.094-.2.144a17.957,17.957,0,0,0-5.648,7.736A6.3,6.3,0,0,0,1835.449,35.808Z" transform="translate(-1368.224)"/><path d="M1317.291,1c.973.729.646,1.666.338,2.535a32.9,32.9,0,0,1-4.786,8.406,42.313,42.313,0,0,1-12.6,11.586,2.724,2.724,0,0,0-1.055.975,68.09,68.09,0,0,0-4.114,7.837,9.494,9.494,0,0,0-.743,2.8,1.547,1.547,0,0,0,1.838,1.817,7.362,7.362,0,0,0,3.493-1.275,15.865,15.865,0,0,0,5.076-4.946,9.792,9.792,0,0,1,6.091-4.629,17.6,17.6,0,0,0-5.227,6.939,6.244,6.244,0,0,0-.68,2.926c.041,1.082.493,1.351,1.5.911a4.3,4.3,0,0,0,1.253-.943,20.642,20.642,0,0,0,3.575-5.02,7.65,7.65,0,0,0,.584-4.373,2.243,2.243,0,0,1,1.793-2.6c.631-.117.85,0,.614.661a9.094,9.094,0,0,0-.494,3.461c.062,1.6.715,2.669,1.725,2.924a3.271,3.271,0,0,0,3.741-1.557c.606-1,1.167-2.035,1.758-3.048.2-.351.418-.75.938-.473.454.242.722.72.447,1.11-.833,1.183-.7,2.722-1.765,3.88a38.139,38.139,0,0,0-3.953,6.1c-.232.378-.4,1.023-1.063.673s-.574-.91-.26-1.463c.895-1.579,1.8-3.153,2.726-4.779-.424-.237-.741.017-1.052.093a3.8,3.8,0,0,1-3.726-.885c-.7-.672-.9-.438-1.239.279a16.01,16.01,0,0,1-4.591,5.869,4.768,4.768,0,0,1-2.855,1.2c-1.5.024-2.167-.671-2.014-2.169.057-.555.172-1.1.276-1.749a3.373,3.373,0,0,0-1.317.86,12.666,12.666,0,0,1-6.411,2.95c-2.173.249-3.535-1.249-2.911-3.359a31.562,31.562,0,0,1,3.467-7.061c3.288-5.528,6.643-11.015,9.947-16.533A23.413,23.413,0,0,1,1316.562,1Zm-16.676,21.66a2.845,2.845,0,0,0,.422-.19,35.909,35.909,0,0,0,13.5-15.366,7.947,7.947,0,0,0,.786-3.157c.005-.4.106-.856-.337-1.085a1.107,1.107,0,0,0-1.228.274,4.883,4.883,0,0,0-.693.676C1308.151,9.557,1304.52,16.16,1300.615,22.66Z" transform="translate(-976.633)"/><path d="M16.189,51.269a18.086,18.086,0,0,1-8.769-1.8c-1.47-.764-2.627.114-3.846.727-.4.2-.814.89-1.23.424-.394-.441.284-.83.548-1.185a118.117,118.117,0,0,0,7.2-11.93c3.139-5.468,6.282-10.935,9.171-16.542.739-1.435.659-1.626-.944-1.493-2.491.206-4.969.568-7.454.848-1.41.16-2.083-.327-1.994-1.4.044-.531.223-.9.837-.635,2.908,1.247,5.9.467,8.858.355,5.085-.192,10.174-.651,15.22.425a13.058,13.058,0,0,1,4.59,1.831c3.359,2.243,4.313,5.552,3.838,9.325-1.2,9.541-9.411,19.74-21.5,20.816C19.336,51.165,17.971,51.251,16.189,51.269Zm22.136-22.41C38.443,24.2,36.46,21.4,32.014,20a23.549,23.549,0,0,0-5.861-.813,2.963,2.963,0,0,0-2.973,1.6q-7.4,11.969-13.838,24.475c-1.136,2.209-.925,2.813,1.275,4a9.472,9.472,0,0,0,2.266.842,17.53,17.53,0,0,0,7.689.143A22.166,22.166,0,0,0,38.326,28.858Z" transform="translate(0 -13.025)"/><path d="M542.591,104.282c-.921,1.068-.6,2.029.145,2.972.05.063.09.135.134.2,1.645,2.513,1.7,4.171.194,5.818-1.6,1.746-4.951,2.387-6.931,1.2a1.1,1.1,0,0,0-1.473.093,8.822,8.822,0,0,1-2.776,1.468c-2.228.638-3.4-.336-3.161-2.612.028-.277.1-.549.157-.872-.4-.05-.55.271-.747.47a6.032,6.032,0,0,1-1.407,1.144,2.176,2.176,0,0,1-2.5.151c-.839-.63-.588-1.506-.339-2.337.113-.38.246-.755.464-1.417a22.82,22.82,0,0,1-5.417,3.558,8.989,8.989,0,0,1-3.885.8c-1.634-.086-2.382-.8-2.364-2.413.028-2.627,1.381-4.694,2.979-6.608a9.874,9.874,0,0,1,3.673-2.922,4.068,4.068,0,0,1,1.151-.353c.631-.061,1.331-.2,1.792.428.5.684.128,1.336-.211,1.921a6.432,6.432,0,0,1-4.787,2.956c-.71.133-1.552-.018-1.855,1.012-.417,1.42-.838,2.848-.089,4.23a1.78,1.78,0,0,0,2.051.685,12.683,12.683,0,0,0,8.222-5.726c.948-1.4,1.664-2.96,2.506-4.435.249-.436.481-1.061,1.177-.653a1.02,1.02,0,0,1,.386,1.624,47.178,47.178,0,0,0-3.3,5.8,14.524,14.524,0,0,0-.684,1.682c-.162.514-.525,1.152.147,1.523.593.327,1.074-.144,1.5-.519a13.674,13.674,0,0,0,2.809-3.63c.969-1.729,1.931-3.462,2.917-5.181.189-.329.329-.839.836-.746.523.1.584.628.691,1.047a2.122,2.122,0,0,1-.583,1.781,31.7,31.7,0,0,0-3.11,4.913,7.157,7.157,0,0,0-.657,2.932c-.015.928.438,1.458,1.336,1.225,1.484-.385,3.093-.68,3.551-2.555.1-.411.552-.813.856-.769,1.134.164,1.541-.726,2.1-1.332.765-.83,1.415-1.766,2.124-2.649a2.247,2.247,0,0,0,.593-1.271A3.442,3.442,0,0,1,542.591,104.282Zm-3.153,10.2c2.489-.034,3.718-1.953,2.716-4.16-.2-.44-.465-.849-.689-1.278-.359-.691-.7-.76-1.219-.1-.821,1.046-1.7,2.05-2.6,3.031-.956,1.045-.865,1.621.442,2.219A2.772,2.772,0,0,0,539.438,114.485Zm-22.432-7.034a3.949,3.949,0,0,0,3.6-2.833c.1-.431.222-.915-.2-1.231a1.053,1.053,0,0,0-1.244.111,8.088,8.088,0,0,0-2.708,3.33C516.112,107.485,516.692,107.422,517.005,107.451Z" transform="translate(-386.506 -76.903)"/><path d="M247.078,85.778a.627.627,0,0,1-.118.854c-3.16,3.759-6.526,7.293-10.841,9.768a8,8,0,0,1-4.374,1.232,2.174,2.174,0,0,1-2.357-2.346,7.767,7.767,0,0,1,.68-3.173c.166-.441.341-.878.522-1.343-.557-.126-.639.275-.829.487a23.071,23.071,0,0,1-4.829,4.211,6.093,6.093,0,0,1-2.1.912c-1.555.3-2.226-.265-2.182-1.825a7.615,7.615,0,0,1,.853-3.011A22.9,22.9,0,0,1,231.1,81.4a11.613,11.613,0,0,1,4.49-1.383,1.347,1.347,0,0,0,1.142-.555,3.452,3.452,0,0,1,2.689-1.346c.05.118.106.186.1.251-.032.606-1.066.977-.523,1.645.357.44,1.2-.04,1.75.588a1.915,1.915,0,0,1-1.6.091,1.076,1.076,0,0,0-1.312.579,80.984,80.984,0,0,0-5.571,11.3,6.766,6.766,0,0,0-.517,2.6,1.255,1.255,0,0,0,1.263,1.34,5.271,5.271,0,0,0,3.126-.772,32.644,32.644,0,0,0,7.646-6.29C244.9,88.289,245.934,87.057,247.078,85.778Zm-23.522,8.467c-.022.667.348.9,1.05.53a13.329,13.329,0,0,0,1.53-.972c4.433-3.211,6.97-7.87,9.533-12.508.323-.585.057-.7-.5-.61a7.686,7.686,0,0,0-3.437,1.415,22.872,22.872,0,0,0-6.136,7.094A15.631,15.631,0,0,0,223.556,94.245Z" transform="translate(-165.389 -58.386)"/><path d="M426.269,51.849c-.038-.63.4-.919.725-1.241a9.93,9.93,0,0,1,8.162-2.949c2.875.232,4.914,2.656,5.208,5.941a23.656,23.656,0,0,1-.289,5.548c-.045.307-.279.687.035.909.4.281.667-.154.927-.355,4.129-3.185,8.233-6.4,12.373-9.571a33.628,33.628,0,0,1,4.722-3.182,8.578,8.578,0,0,1,2.861-.94,2.145,2.145,0,0,1,1.932.794c.321.343.4.7-.22.694-3.042-.026-5.481,1.561-7.948,3A74.989,74.989,0,0,0,441.2,60.862c-2.746,2.587-4.2,6-5.72,9.348-.494,1.089-.952,1.8-2.278,1.531-.786-.16-1.469.323-2.272.634-.072-.6.373-.809.621-1.117C434.5,67.6,436.98,63.7,437.89,59a11.935,11.935,0,0,0-.124-5.411,5.452,5.452,0,0,0-5.966-4.242,6.2,6.2,0,0,0-4.823,2.139A.756.756,0,0,1,426.269,51.849Z" transform="translate(-321.077 -34.064)"/><path d="M1617.75,58.612c-.3-.772.063-1.389,0-2.013-.236-2.477-2.08-4.088-4.823-4.425-3.4-.417-6.114.93-8.451,3.147a29.589,29.589,0,0,0-7.854,12.088,11.938,11.938,0,0,0-.6,4.3,3.917,3.917,0,0,0,3.779,4.1,15.509,15.509,0,0,0,12.613-4.128,33.572,33.572,0,0,0,4.134-4.428c.229-.3.451-.9.874-.659.506.283.261.889.046,1.3a11.921,11.921,0,0,1-2.429,3.159,18.514,18.514,0,0,1-16.017,5.172c-4.155-.595-6.227-3.583-5.415-7.773a22.668,22.668,0,0,1,7.969-12.976c4.531-3.909,9.725-4.842,15.43-3.2.039.011.08.017.118.028,2.924.877,3.061,1.136,1.839,3.877A6.952,6.952,0,0,1,1617.75,58.612Z" transform="translate(-1204.836 -38.244)"/><path d="M1222.557,72.633a17,17,0,0,1-5.594-.234c-.908-.234-.649-.978-.341-1.589a59.034,59.034,0,0,1,3.079-5.084,139.238,139.238,0,0,0,8.368-15.048c.76-1.6.7-1.671-1.019-1.761a1.216,1.216,0,0,1-.945-.252c.326-.549.858-.335,1.286-.333,4.085.019,8.174.12,12.2-.775.709-.158,1.405-.371,2.106-.565.23-.064.48-.216.683-.024.239.226-.021.437-.1.647a1.826,1.826,0,0,1-1.877,1.242c-2.023.013-4.047.111-6.068.061a3.542,3.542,0,0,0-3.623,2.052c-1.341,2.583-2.839,5.085-4.252,7.631-.646,1.164-.545,1.455.819,1.665a28.211,28.211,0,0,0,8.087-.309c.414-.056,1.146-.694,1.268.177.1.719-.7.787-1.259.806a65.653,65.653,0,0,1-9.093-.04,1.449,1.449,0,0,0-1.587.812c-1.424,2.495-2.856,4.986-4.037,7.608-.873,1.936-.586,2.432,1.536,2.8a1.709,1.709,0,0,1,.4.189Q1222.576,72.474,1222.557,72.633Z" transform="translate(-919.304 -34.736)"/><path d="M1451.187,111.829c3.741.316,6.778-1.152,9.471-3.6a8.072,8.072,0,0,1-3.447,3.057c-3.49,1.78-7.275,2.03-11.092,2.065-.37,0-.968.057-1.044-.391-.1-.577.506-.748.946-.926a4.1,4.1,0,0,1,1.92-.069c2.6.207,4.006-1.018,4.043-3.6.011-.752.314-1.83-.361-2.153s-1.094.743-1.595,1.213a19.482,19.482,0,0,1-9.729,5.386c-1.54.29-3.264.644-4.389-.84-1.05-1.385-.135-2.808.464-4.1a15.246,15.246,0,0,1,4.963-6.017,5.476,5.476,0,0,1,3-1.176c1.28-.053,1.765.586,1.412,1.833a3.887,3.887,0,0,1-4.786,2.412c-.91-.376-1.291-.143-1.708.619a12.226,12.226,0,0,0-1.541,4.18c-.255,1.844.706,2.813,2.52,2.517,4.666-.761,8.058-3.534,10.978-7.02a3.907,3.907,0,0,0,.476-1.229,6.01,6.01,0,0,1,4.449-3.9c.847-.23,1.5.318,1.322,1.037-.138.547-.371,1.007-1.086.465a1.648,1.648,0,0,0-2.763.975,5.706,5.706,0,0,0,.049,2.766C1454.241,108.03,1453.657,110.22,1451.187,111.829Zm-7.456-9.266c.076-.836-.332-1.162-1.086-.814a4.153,4.153,0,0,0-1.894,1.818c-.252.452-.19.77.374.881A2.481,2.481,0,0,0,1443.731,102.563Z" transform="translate(-1085.199 -74.99)"/><path d="M962.436,106.445c-.585.654-1.151,1.325-1.758,1.957a8.628,8.628,0,0,1-2.879,1.976,1.663,1.663,0,0,1-1.834-.025c-.587-.489-.433-1.185-.292-1.811a10.187,10.187,0,0,1,1.619-3.5,16.416,16.416,0,0,1,7.48-6.313c1.233-.489,2.737-.288,3.685-1.534a1,1,0,0,1,1.121-.163c-.633,1.032.031,1.4,1.04,1.718-2.225-.552-2.507,1.2-3.186,2.409a38.678,38.678,0,0,0-3.124,6.555c-.3.9-.8,1.971.081,2.708.869.724,1.847.042,2.726-.324.47-.2.9-.484,1.508-.817-.9,1.417-3.807,2.539-5.167,2.147a1.724,1.724,0,0,1-1.328-1.792,9.015,9.015,0,0,1,.719-2.892Zm-4.522,1.879c-.108,1.126.287,1.228.9.848a14.387,14.387,0,0,0,1.571-1.129c2.708-2.236,4.454-5.194,6.1-8.22.158-.29.582-.6.262-.951-.244-.27-.616,0-.911.081a9.852,9.852,0,0,0-4.875,3.817A16.094,16.094,0,0,0,957.914,108.324Z" transform="translate(-721.836 -72.64)"/><path d="M1703.879,109.518a8.172,8.172,0,0,1-4.728,2.127,1.811,1.811,0,0,1-2.032-2.011c-.019-1.083.559-2,.637-3.17-.628.625-1.267,1.241-1.883,1.878a9.674,9.674,0,0,1-2.939,2.108,1.764,1.764,0,0,1-1.95.053c-.641-.511-.463-1.251-.294-1.916a11.637,11.637,0,0,1,2.581-4.757c2.306-2.668,4.827-5.039,8.6-5.392a1.363,1.363,0,0,0,.876-.594,2.046,2.046,0,0,1,1.942-.711c-.94,1.2.026,1.37.884,1.607-.344.4-.658.215-.932.167a1.041,1.041,0,0,0-1.215.564,52.727,52.727,0,0,0-4.191,8.6c-.267.8-.627,1.723.051,2.409.764.774,1.664.17,2.494-.093C1702.383,110.191,1702.828,109.644,1703.879,109.518ZM1701.92,99.1c-.477-.331-.817-.085-1.149,0-3.665.932-7.514,7.195-7.884,9.588-.043.273-.112.6.185.769.337.187.627-.068.886-.237C1697.767,106.74,1699.88,102.956,1701.92,99.1Z" transform="translate(-1278.355 -72.771)"/><path d="M168.641,91.454a38.255,38.255,0,0,1,6.155-4.188,4.487,4.487,0,0,1,2.68-.58c1.094.185,1.334.751.731,1.661a2.7,2.7,0,0,0-.208.3c-.522,1.088-.967,1.827-2.3.634-.884-.792-2.17-.4-3.215.131a14.589,14.589,0,0,0-4.853,4.31c-1.924,2.505-3.394,5.3-5.061,7.976-.294.471-.43,1.416-1.374.859-.8-.471-.775-1.171-.363-1.889q2.892-5.046,5.8-10.081c.584-1.015,1.151-2.04,1.74-3.052.282-.483.55-1.109,1.281-.67a1.152,1.152,0,0,1,.579,1.632C169.721,89.49,169.174,90.469,168.641,91.454Z" transform="translate(-119.884 -64.849)"/><path d="M713.788,112.657a8.561,8.561,0,0,1-5.949,3.092,2.043,2.043,0,0,1-2.241-2.906,33.227,33.227,0,0,1,4.4-7.92,1.513,1.513,0,0,1,.555-.458c.379-.179.814-.613,1.2-.236.357.35-.068.748-.264,1.073a38.684,38.684,0,0,0-3.355,6.573c-.325.886-.827,1.949.051,2.713.86.748,1.874.163,2.726-.248C711.9,113.858,712.831,113.224,713.788,112.657Z" transform="translate(-532.443 -78.051)"/><path d="M660.6,112a20.474,20.474,0,0,1-5.064,3.508,1.729,1.729,0,0,1-1.155.287.882.882,0,0,1-.755-.7c-.057-.41.362-.374.6-.447a3.094,3.094,0,0,0,2.225-2.359c.518-2.241.94-4.5,1.408-6.757.093-.445-.123-.61-.517-.593-.435.019-.867.076-1.3.116l-.056-.306,5.06-.9c-1.442,1.434-1.607,3.042-1.855,4.574a8.539,8.539,0,0,1-2.806,5.374c1.588-.237,2.741-1.269,4.046-1.991Z" transform="translate(-493.223 -77.877)"/><path d="M330.21,134.975a4.626,4.626,0,0,1-2.866,3.451,1.274,1.274,0,0,1-1.65-1.377,3.664,3.664,0,0,1,2.6-3.3C329.355,133.51,330.2,134.048,330.21,134.975Z" transform="translate(-244.926 -100.473)"/><path d="M1776.154,100.817a1.038,1.038,0,0,1,.028.347c-.268.922-.454,1.853.405,2.566a2.9,2.9,0,0,0,2.883.3,9.451,9.451,0,0,0,3.229-2.092c.281-.241.658-.735,1.01-.341.387.433-.2.681-.476.908q-2.392,1.952-4.814,3.867c-.236.188-.428.5-.919.4.491-.876,1.563-1.15,2.031-2.176-1.067.186-2.023.43-2.992.505a2.175,2.175,0,0,1-2.56-1.848C1773.882,102.372,1774.761,101.376,1776.154,100.817Z" transform="translate(-1341.536 -75.58)"/><path d="M681.653,105.071a14.636,14.636,0,0,0,2.926-3.666,8.538,8.538,0,0,0,.86-5.735c-.049-.223-.258-.471,0-.65.22-.151.475-.016.68.109a2.535,2.535,0,0,1,1.188,2.591,5.824,5.824,0,0,1-1.064,2.793,19.3,19.3,0,0,1-4.421,4.753Z" transform="translate(-514.451 -71.14)"/><path d="M725.866,68.637c1.791-1.46,3.578-2.925,5.376-4.377.91-.735,1.836-1.451,2.763-2.166.236-.181.528-.293.754-.01s.02.54-.2.717c-2.739,2.162-5.593,4.158-8.5,6.083Z" transform="translate(-547.929 -46.122)"/><path d="M1418.176,105.68a8.848,8.848,0,0,1,4.477-2.841,1.067,1.067,0,0,1,1.352.53c.236.747-.5,1.22-.866,1.76s-.672-.043-.979-.229a2.664,2.664,0,0,0-2.663.044C1419.041,105.157,1418.615,105.433,1418.176,105.68Z" transform="translate(-1072.133 -77.075)"/></g></svg>