<svg xmlns="http://www.w3.org/2000/svg" width="37" height="24" viewBox="0 0 37 24"><defs><style>.a{fill:#f25c79;}.b{fill:#fff;}</style></defs><g transform="translate(-448 -1085)"><rect class="a" width="37" height="24" rx="2" transform="translate(448 1085)"/><path class="b" d="M14.434,4.506,10.778,7.958A.61.61,0,0,1,9.75,7.515V5.688c-3.671.025-5.219.892-4.184,4.351a.407.407,0,0,1-.635.44,4.887,4.887,0,0,1-1.884-3.64c0-3.655,2.986-4.38,6.7-4.4V.61A.61.61,0,0,1,10.778.167l3.656,3.453A.61.61,0,0,1,14.434,4.506ZM9.75,9.626v1.749H1.625V3.25H2.918a.3.3,0,0,0,.22-.094,4.95,4.95,0,0,1,1.3-.957.3.3,0,0,0-.141-.575H1.219A1.219,1.219,0,0,0,0,2.844v8.937A1.219,1.219,0,0,0,1.219,13h8.937a1.219,1.219,0,0,0,1.219-1.219V9.526a.3.3,0,0,0-.407-.287,1.824,1.824,0,0,1-.868.086A.305.305,0,0,0,9.75,9.626Z" transform="translate(460.95 1090)"/></g></svg>