<svg xmlns="http://www.w3.org/2000/svg" width="37" height="24" viewBox="0 0 37 24"><defs><style>.a{fill:#00acee;}.b{fill:#fff;}</style></defs><g transform="translate(-401 -1085)"><rect class="a" width="37" height="24" rx="2" transform="translate(401 1085)"/><path class="b" d="M14.361,6.621c.01.142.01.284.01.427a9.27,9.27,0,0,1-9.334,9.334A9.27,9.27,0,0,1,0,14.908a6.786,6.786,0,0,0,.792.041,6.57,6.57,0,0,0,4.073-1.4A3.286,3.286,0,0,1,1.8,11.272a4.137,4.137,0,0,0,.62.051,3.47,3.47,0,0,0,.863-.112A3.281,3.281,0,0,1,.65,7.992V7.951a3.3,3.3,0,0,0,1.483.416A3.285,3.285,0,0,1,1.117,3.98,9.325,9.325,0,0,0,7.881,7.413,3.7,3.7,0,0,1,7.8,6.661a3.284,3.284,0,0,1,5.677-2.245,6.459,6.459,0,0,0,2.082-.792,3.272,3.272,0,0,1-1.442,1.808,6.576,6.576,0,0,0,1.889-.508,7.052,7.052,0,0,1-1.645,1.7Z" transform="translate(413 1087.619)"/></g></svg>