<svg xmlns="http://www.w3.org/2000/svg" width="37.81" height="50.591" viewBox="0 0 37.81 50.591"><defs><style>.a{fill:#255a7b;}</style></defs><g transform="translate(-64.679 0)"><g transform="translate(64.679 0)"><path class="a" d="M78.589,39.056a.741.741,0,1,0-1.482-.028c-.039,2.043-.017,4.172.064,6.337H66.828c-1.9-7.778.932-15.407.962-15.484l.007-.02a48.119,48.119,0,0,0,2.365-8.9,4.96,4.96,0,0,0-1.229-3.72,4.871,4.871,0,0,1-1.089-3.13A39.861,39.861,0,0,1,69.719,2.832a1.957,1.957,0,0,1,1.967-1.347l2.92.157a.741.741,0,0,0,.08-1.48L71.766.005a3.441,3.441,0,0,0-3.457,2.37,40.765,40.765,0,0,0-1.949,11.71,6.356,6.356,0,0,0,1.418,4.085,3.479,3.479,0,0,1,.911,2.607,47.808,47.808,0,0,1-2.29,8.586c-.177.47-3.143,8.567-.862,16.936.06.222.331,1.1.4,1.316.143.418.3.83.463,1.231A2.8,2.8,0,0,0,69,50.591h6.963a2.8,2.8,0,0,0,2.8-2.721c0-.083,0-.161,0-.243C78.6,44.792,78.535,41.9,78.589,39.056ZM76.923,48.7a1.307,1.307,0,0,1-.96.414H69a1.326,1.326,0,0,1-1.225-.827c-.195-.471-.368-.951-.525-1.435h9.986c0,.013.043.813.046.865a1.309,1.309,0,0,1-.358.983Z" transform="translate(-64.679 0)"/><path class="a" d="M206.272,4.219l-13.634-.727a.741.741,0,1,0-.08,1.48l10.746.579V17.08c-5.02,1.355-7.765,6.212-8.035,6.709-1.918,2.927-3.093,7.938-3.492,14.894a.741.741,0,0,0,.7.782h.043a.741.741,0,0,0,.739-.7,54.412,54.412,0,0,1,.983-8.022h2.981a2.137,2.137,0,0,0,2.105-2.5,54.418,54.418,0,0,1-.515-6.7,10.7,10.7,0,0,1,5.372-3.152l2.231-.355a2.118,2.118,0,0,0,1.872-2.106V6.338a2.12,2.12,0,0,0-2.013-2.118ZM197.72,29.032a.645.645,0,0,1-.5.232H194.59a15.972,15.972,0,0,1,1.935-4.688c.013-.02.026-.041.037-.062a12.2,12.2,0,0,1,.824-1.274,46.016,46.016,0,0,0,.479,5.255.651.651,0,0,1-.145.537Zm9.083-13.1a.638.638,0,0,1-.57.635l-1.447.229V5.628L206.2,5.7a.639.639,0,0,1,.606.638Z" transform="translate(-179.218 -3.146)"/><path class="a" d="M119.549,36.187a28.011,28.011,0,0,0-1.372,7.7,1.747,1.747,0,0,0,1.924,1.753l13.568-1.385a1.742,1.742,0,0,0,1.569-1.737v-5.8a1.748,1.748,0,0,0-1.746-1.746H121.215A1.739,1.739,0,0,0,119.549,36.187Zm14.207.527v5.8a.264.264,0,0,1-.238.263l-13.568,1.385a.258.258,0,0,1-.2-.067.268.268,0,0,1-.088-.2,27.077,27.077,0,0,1,1.3-7.262.263.263,0,0,1,.252-.184h12.278A.265.265,0,0,1,133.757,36.713Z" transform="translate(-112.892 -31.512)"/><path class="a" d="M157.215,64.528a2.361,2.361,0,1,0-2.361-2.361A2.364,2.364,0,0,0,157.215,64.528Zm0-3.24a.879.879,0,1,1-.879.879A.88.88,0,0,1,157.215,61.288Z" transform="translate(-145.944 -53.897)"/><path class="a" d="M217.818,64.528a2.361,2.361,0,1,0-2.361-2.361A2.364,2.364,0,0,0,217.818,64.528Zm0-3.24a.879.879,0,1,1-.879.879A.88.88,0,0,1,217.818,61.288Z" transform="translate(-200.56 -53.897)"/><path class="a" d="M410.262,25.363a.741.741,0,1,0-.938,1.147,5.528,5.528,0,0,1,.068,8.506.741.741,0,1,0,.956,1.132,7.01,7.01,0,0,0-.086-10.785Z" transform="translate(-375.027 -22.706)"/><path class="a" d="M394.64,56.459a.741.741,0,1,0-.938,1.147,1.534,1.534,0,0,1,.019,2.361.741.741,0,1,0,.956,1.132,3.017,3.017,0,0,0-.037-4.641Z" transform="translate(-360.948 -50.73)"/></g></g></svg>