<svg xmlns="http://www.w3.org/2000/svg" width="24.35" height="19.777" viewBox="0 0 24.35 19.777"><defs><style>.a{fill:#f492a5;}</style></defs><path class="a" d="M21.847,8.31c.015.216.015.433.015.649a14.1,14.1,0,0,1-14.2,14.2A14.1,14.1,0,0,1,0,20.917a10.324,10.324,0,0,0,1.205.062,9.995,9.995,0,0,0,6.2-2.132,5,5,0,0,1-4.666-3.461,6.294,6.294,0,0,0,.943.077,5.278,5.278,0,0,0,1.313-.17,4.991,4.991,0,0,1-4-4.9v-.062a5.026,5.026,0,0,0,2.256.633A5,5,0,0,1,1.7,4.292,14.185,14.185,0,0,0,11.99,9.515a5.634,5.634,0,0,1-.124-1.143A5,5,0,0,1,20.5,4.957,9.825,9.825,0,0,0,23.67,3.752,4.977,4.977,0,0,1,21.476,6.5a10,10,0,0,0,2.874-.773,10.728,10.728,0,0,1-2.5,2.58Z" transform="translate(0 -3.381)"/></svg>