<svg xmlns="http://www.w3.org/2000/svg" width="28.127" height="19.777" viewBox="0 0 28.127 19.777"><defs><style>.a{fill:#f492a5;}</style></defs><path class="a" d="M28.589,7.594a3.534,3.534,0,0,0-2.487-2.5C23.909,4.5,15.114,4.5,15.114,4.5s-8.8,0-10.989.592a3.534,3.534,0,0,0-2.487,2.5,37.075,37.075,0,0,0-.588,6.814,37.075,37.075,0,0,0,.588,6.814,3.482,3.482,0,0,0,2.487,2.463c2.194.592,10.989.592,10.989.592s8.8,0,10.989-.592a3.482,3.482,0,0,0,2.487-2.463,37.075,37.075,0,0,0,.588-6.814,37.075,37.075,0,0,0-.588-6.814Zm-16.352,11V10.226l7.351,4.182-7.351,4.182Z" transform="translate(-1.05 -4.5)"/></svg>